<svg width="598" height="150" viewBox="0 0 598 150" fill="none" xmlns="http://www.w3.org/2000/svg">
    <path d="M30.8202 130.04L52.0102 105.18L76.2302 76.77V62.04H2.34023V80.08H46.1602L24.8102 105.18L0.740234 133.48V148.09H76.9702V130.04H30.8202Z" fill="white"/>
    <path d="M111.22 130.16V113.96L152.22 113.84V96.04H111.22V79.96H156.64V62.04H88.75V148.09H157.86V130.16H111.22Z" fill="white"/>
    <path d="M245.75 62.04L224.5 105.18L220.96 112.37L217.4 105.18L196.04 62.04H171.61V148.09H191.62V93.58L197.2 105.18L213.71 139.49H228.2L244.62 105.18L250.17 93.58L250.2 105.18L250.29 148.09H270.18V62.04H245.75Z" fill="white"/>
    <path d="M368.32 82.2899C364.27 75.5799 358.7 70.2999 351.62 66.4599C344.54 62.6099 336.63 60.6899 327.87 60.6899C319.11 60.6899 311.2 62.6099 304.12 66.4599C297.04 70.2999 291.48 75.5799 287.42 82.2899C283.37 88.9999 281.35 96.5299 281.35 104.88V105.18C281.4 113.49 283.42 121.02 287.42 127.77C291.48 134.6 297.04 139.97 304.12 143.85C311.2 147.74 319.11 149.68 327.87 149.68C336.63 149.68 344.54 147.72 351.62 143.79C358.7 139.86 364.27 134.5 368.32 127.71C372.32 121 374.34 113.49 374.39 105.18V104.88C374.39 96.5299 372.37 88.9999 368.32 82.2899ZM348.25 117.95C346.2 121.84 343.4 124.91 339.84 127.16C336.28 129.41 332.37 130.53 328.12 130.53C323.86 130.53 319.93 129.41 316.33 127.16C312.73 124.91 309.85 121.84 307.68 117.95C305.54 114.12 304.46 109.86 304.43 105.18V105C304.43 100.34 305.49 96.06 307.62 92.17C309.74 88.29 312.63 85.2399 316.27 83.0299C319.91 80.8199 323.86 79.7099 328.12 79.7099C332.37 79.7099 336.28 80.8199 339.84 83.0299C343.4 85.2399 346.2 88.29 348.25 92.17C350.29 96.06 351.32 100.34 351.32 105V105.18C351.29 109.86 350.26 114.12 348.25 117.95Z" fill="white"/>
    <path d="M375.25 62.04V80.57H400.78V148.09H423.25V80.57H449.03V62.04H375.25V62.04Z" fill="white"/>
    <path d="M535.26 82.2899C531.21 75.5799 525.64 70.2999 518.56 66.4599C511.49 62.6099 503.57 60.6899 494.81 60.6899C486.06 60.6899 478.14 62.6099 471.06 66.4599C463.98 70.2999 458.42 75.5799 454.37 82.2899C450.32 88.9999 448.29 96.5299 448.29 104.88V105.18C448.34 113.49 450.37 121.02 454.37 127.77C458.42 134.6 463.98 139.97 471.06 143.85C478.14 147.74 486.06 149.68 494.81 149.68C503.57 149.68 511.49 147.72 518.56 143.79C525.64 139.86 531.21 134.5 535.26 127.71C539.26 121 541.29 113.49 541.34 105.18V104.88C541.34 96.5299 539.31 88.9999 535.26 82.2899ZM515.19 117.95C513.14 121.84 510.34 124.91 506.78 127.16C503.22 129.41 499.31 130.53 495.06 130.53C490.8 130.53 486.87 129.41 483.27 127.16C479.67 124.91 476.79 121.84 474.62 117.95C472.48 114.12 471.4 109.86 471.37 105.18V105C471.37 100.34 472.43 96.06 474.56 92.17C476.69 88.29 479.57 85.2399 483.21 83.0299C486.85 80.8199 490.8 79.7099 495.06 79.7099C499.31 79.7099 503.22 80.8199 506.78 83.0299C510.34 85.2399 513.14 88.29 515.19 92.17C517.23 96.06 518.26 100.34 518.26 105V105.18C518.23 109.86 517.2 114.12 515.19 117.95Z" fill="white"/>
    <path d="M597.26 0.869965L589.28 6.39996C589.28 6.39996 567.21 6.81998 545.43 15.42C523.65 24.04 525.21 29.17 523.19 33.43C521.15 37.69 518.83 43.02 514.77 46.19C510.7 49.38 471.21 58.87 467.45 60.03C463.66 61.19 457.86 58.96 453.61 55.2C449.35 51.41 440.93 40.29 427.97 34.28C414.99 28.29 399.03 32.45 382.38 36.22C365.73 39.98 343.59 44.54 336.5 44.64C329.89 44.73 324.26 41.84 323.62 41.46C323.57 41.44 323.55 41.44 323.55 41.44C323.55 41.44 323.6 41.44 323.69 41.43C324.83 41.37 333.02 40.78 349.48 36.31C367.3 31.48 398.74 20.93 417.71 20.93C436.66 20.93 448.08 32.14 455.24 37.67C462.41 43.17 463.29 45.1 468.99 44.14C474.71 43.17 498.33 36.71 503.82 35.04C509.35 33.41 512.35 22.56 517.87 16.96C523.37 11.33 535.86 6.89997 561.42 2.80997C586.95 -1.24003 597.26 0.869965 597.26 0.869965Z" fill="white"/>
    <path d="M390.25 0.320068L382.86 6.26007C349.17 15.2501 332.46 25.93 317.46 37.5201C302.42 49.14 304.33 58.1301 304.33 58.1301C300.84 59.4701 297.77 60.8101 295.27 61.9701C290.54 64.2001 287.79 65.83 287.79 65.83C287.79 65.83 284.66 59.3701 285.31 53.2001C285.95 47.0301 302 28.1501 334.95 14.2401C367.91 0.320051 390.25 0.320068 390.25 0.320068Z" fill="white"/>
    <path d="M449.05 62.0801H429.67C429.67 62.0801 429.67 62.0801 429.67 62.0601C429.62 61.9701 429.48 61.6801 429.24 61.2501C427.58 58.3401 421.11 48.9301 406.45 48.9301C389.09 48.9301 368.7 51.4701 361.44 51.7801C354.18 52.0401 351.81 50.5301 351.81 50.5301C351.81 50.5301 367.98 48.1401 390.77 43.0501C409.11 38.9701 420.34 39.4801 428.73 43.5501C428.73 43.5501 428.74 43.5401 428.75 43.5601C428.75 43.5601 428.75 43.5601 428.76 43.5601C428.78 43.5701 428.82 43.5901 428.87 43.6101C430.86 44.5801 432.68 45.7601 434.39 47.1101C438.04 49.9901 441.3 52.9801 443.92 55.5301C443.92 55.5301 443.94 55.5602 444 55.6002C444.03 55.6302 444.07 55.6602 444.11 55.7002C444.72 56.3102 445.31 56.8801 445.83 57.4301C445.86 57.4801 445.9 57.5101 445.95 57.5601C446.54 58.2501 447.23 59.1101 447.89 60.1101C448 60.2801 448.1 60.4401 448.2 60.6101C448.27 60.7101 448.34 60.8301 448.4 60.9301C448.63 61.3201 448.84 61.6901 449.05 62.0801Z" fill="white"/>
</svg>
